<svg id="Layer_1" data-name="Layer 1" xmlns="http://www.w3.org/2000/svg" viewBox="0 0 658.76 116.66"><defs><style>.cls-2{fill:#e31e26}.cls-3{fill:#fff}.cls-4{fill:#221f1f}</style></defs><path d="M658.09 16.68s-16.43-4.34-22.75-4.9c0 0-25 13.5-32 18a19.16 19.16 0 0 0-8.67 13.89l35.7-26.32h28c.63.04-.28-.67-.28-.67Z" transform="translate(.16 .63)"/><path d="M600.28 27.33c7.32-4.9 32.61-18.73 32.61-18.73a30.69 30.69 0 0 0-22.14-9.23 44.21 44.21 0 0 0-20.7 5H451.73c0 3.71 5.6 6.56 12.14 6.56h40.22l34.26 24.21v36.23c0 15.73 8.26 29.44 21.78 37.35s20.28 7.28 30.23 7.28V46.87c0-6.09 1.83-14.14 9.92-19.54ZM619.6 8a2.51 2.51 0 1 1-2.51 2.51A2.51 2.51 0 0 1 619.6 8Zm-29.13 13 15.68-8.68 6.9.57-22.58 12.47Z" transform="translate(.16 .63)"/><path d="M504.09 10.91h57.66c-12.89 0-23.4 10.35-23.4 24.21Z" transform="translate(.16 .63)" style="fill:#f4e505"/><path class="cls-2" d="M629.75 10.33A31.72 31.72 0 0 0 609.5 2.9V-.61h1.25a30.6 30.6 0 0 1 22.14 9.21ZM630.35 17.39l-25 18.43s-.3-2.7 3.47-5.74 26.5-18.3 26.5-18.3Z" transform="translate(.16 .63)"/><path class="cls-3" d="M579.87 64.47V52.15c0-5.18-2.11-8.77-6.93-12.18l-20.42-14.43a14.3 14.3 0 0 0 2 21Z" transform="translate(.16 .63)"/><path class="cls-3" d="M579.87 64.47V52.15c0-5.18-2.11-8.77-6.93-12.18l-20.42-14.43a14.3 14.3 0 0 0 2 21ZM603.32 29.82c7-4.54 32-18 32-18a16.65 16.65 0 0 0-2.41-3.15s-25.31 13.76-32.63 18.66-9.58 12.17-9.87 18v1.51l4.29-3.16a19.16 19.16 0 0 1 8.62-13.86ZM619.6 8a2.51 2.51 0 1 1-2.51 2.51A2.51 2.51 0 0 1 619.6 8Z" transform="translate(.16 .63)"/><path class="cls-3" d="m590.63 21.57 15.69-8.68 6.89.56-22.58 12.53v-4.41z"/><path class="cls-4" d="M174.27 45.34c-2.65-3.16-6.5-5-11.47-5-10.1 0-17.54 8.22-17.54 19.51s7.44 19.52 17.11 19.52a14.49 14.49 0 0 0 12.5-6.51L186 81.21c-5 7.19-13.61 10.53-21.91 10.53-18.92 0-32.7-12.42-32.7-31.85s13.78-31.83 32.7-31.83c6.76 0 15.32 2.31 20.45 8.9ZM209.16 47.57c12.84 0 23.11 8.56 23.11 21.83S222 91.22 209.16 91.22s-23.11-8.56-23.11-21.82 10.27-21.83 23.11-21.83Zm0 32.35c6.42 0 10.27-4.28 10.27-10.52s-3.85-10.53-10.27-10.53-10.27 4.28-10.27 10.53 3.85 10.52 10.27 10.52ZM237 48.6h12.84v6.67h.16c2.73-5.05 6.33-7.7 12-7.7a17 17 0 0 1 4.28.43v11.72a20 20 0 0 0-5.48-.85c-9.76 0-10.95 5.65-10.95 13.95v17.37H237ZM270 48.6h12.32v5.65h.17c1.71-3.26 5.91-6.68 12.16-6.68 13 0 15.4 8.56 15.4 19.69v22.93h-12.88V69.82c0-4.79-.08-10.95-6.67-10.95s-7.7 5.22-7.7 10.61v20.71H270ZM355 83a22.58 22.58 0 0 1-17.55 8.22c-12.84 0-23.11-8.56-23.11-21.82s10.27-21.83 23.11-21.83c12 0 19.51 8.56 19.51 21.83v4h-29.74a9.59 9.59 0 0 0 9.67 8c4.2 0 7-2.14 9.16-5Zm-10.83-18.31a7.71 7.71 0 0 0-7.88-7.88c-5.65 0-8.73 3.85-9.07 7.88ZM361.55 59.85V29.6h12.83v60.59h-12.83ZM381.92 59.85V29.6h12.84v60.59h-12.84Z" transform="translate(.16 .63)"/><path d="M19.17 35.06v55.76h5.35V35.06h19.17v-4.84H0v4.84H19.17z"/><path d="M67 49.93c-6.36 0-11.49 3.56-13.52 7.87v.09h-.28V29.6h-4.92v60.59h4.84V70.58c0-10.93 6.15-16.32 13.84-16.33C75.2 54.26 77 60.64 77 67.07v23.12h4.84V66.81c.01-8.63-2.65-16.87-14.84-16.88ZM109.05 86.9c-12.1 0-15.12-10.72-15.13-15v-.15h33.21v-3.49c0-9.09-6.36-18.33-18.42-18.33-11.48 0-19.62 8.82-19.63 20.56C89.09 82.66 97 91.21 109 91.22c6.94 0 12.92-2.43 16.92-8.29l-3.53-3c-2.68 4.28-8.13 6.97-13.34 6.97ZM93.92 67.24c0-2.13 3.2-13 14.53-13 7.69 0 13.84 5.88 13.84 13v.15H93.92Z" transform="translate(.16 .63)"/><path d="M410.01 60.47V30.22h-5.35v60.6h30.05v-4.83h-24.7V60.47z"/><path d="M469.3 64.07c0-9.94-6.05-14.12-15.6-14.14-5.05 0-11.12 1.92-14.86 5.42l2.81 3.29a18 18 0 0 1 12.05-4.39c6.37 0 11.26 2.8 11.28 9.73v2.55h-6.14c-3.89 0-9.36.3-13.83 2.1s-7.93 5.05-7.94 11c0 8.28 7.08 11.56 13.81 11.57s10.84-2.36 13.73-7.37v-.07h.41v.15a39.08 39.08 0 0 0 .49 6.27h4.5a123.1 123.1 0 0 1-.75-16.46Zm-4.3 9.07c0 3.32-.71 6.76-2.82 9.37s-5.6 4.39-11.11 4.39c-4.32 0-9.13-2.51-9.13-7.51 0-6.93 8.71-9 17.27-9H465ZM498.13 49.92c-5.87 0-12.58 2.48-15.7 7.89l-.05.07H482V29.6h-4.83v60.59H482v-6.93h.41l.05.08c3.12 5.41 9.83 7.88 15.7 7.88 12.08 0 20.64-8.65 20.65-20.64s-8.6-20.65-20.68-20.66Zm0 37a16.33 16.33 0 1 1 0-32.65c9.76 0 15.8 7.36 15.81 16.33s-6.05 16.29-15.81 16.3Z" transform="translate(.16 .63)"/></svg>