<svg id="Layer_1" data-name="Layer 1" xmlns="http://www.w3.org/2000/svg" viewBox="0 0 1104.33 116.66"><defs><style>.cls-1{fill:#f4e505;}.cls-2{fill:#e31e26;}.cls-3{fill:#fff;}.cls-4{fill:#221f1f;}</style></defs><path d="M658.09,16.68s-16.43-4.34-22.75-4.9c0,0-25,13.5-32,18a19.16,19.16,0,0,0-8.67,13.89l35.7-26.32h28C659,17.39,658.09,16.68,658.09,16.68Z" transform="translate(0.16 0.63)"/><path d="M600.28,27.33c7.32-4.9,32.61-18.73,32.61-18.73l0,0A30.69,30.69,0,0,0,610.75-.63a44.21,44.21,0,0,0-20.7,5H451.73c0,3.71,5.6,6.56,12.14,6.56h40.22l34.26,24.21V71.37c0,15.73,8.26,29.44,21.78,37.35S580.41,116,590.36,116V46.87C590.36,40.78,592.19,32.73,600.28,27.33ZM619.6,8a2.51,2.51,0,1,1-2.51,2.51A2.51,2.51,0,0,1,619.6,8Zm-29.13,13,15.68-8.68,6.9.57L590.47,25.36Z" transform="translate(0.16 0.63)"/><path class="cls-1" d="M504.09,10.91h57.66c-12.89,0-23.4,10.35-23.4,24.21Z" transform="translate(0.16 0.63)"/><path class="cls-2" d="M629.75,10.33A31.72,31.72,0,0,0,609.5,2.9V-.61l1.25,0A30.6,30.6,0,0,1,632.89,8.6Z" transform="translate(0.16 0.63)"/><path class="cls-2" d="M630.35,17.39l-25,18.43s-.3-2.7,3.47-5.74,26.5-18.3,26.5-18.3Z" transform="translate(0.16 0.63)"/><path class="cls-3" d="M579.87,64.47V52.15c0-5.18-2.11-8.77-6.93-12.18L552.52,25.54a14.3,14.3,0,0,0,2,21Z" transform="translate(0.16 0.63)"/><path class="cls-3" d="M579.87,64.47V52.15c0-5.18-2.11-8.77-6.93-12.18L552.52,25.54a14.3,14.3,0,0,0,2,21Z" transform="translate(0.16 0.63)"/><path class="cls-3" d="M603.32,29.82c7-4.54,32-18,32-18a16.65,16.65,0,0,0-2.41-3.15l0,0S607.6,22.43,600.28,27.33s-9.58,12.17-9.87,18l0,1.51,4.29-3.16A19.16,19.16,0,0,1,603.32,29.82Z" transform="translate(0.16 0.63)"/><path class="cls-3" d="M619.6,8a2.51,2.51,0,1,1-2.51,2.51A2.51,2.51,0,0,1,619.6,8Z" transform="translate(0.16 0.63)"/><polygon class="cls-3" points="590.63 21.57 606.32 12.89 613.21 13.45 590.63 25.98 590.63 21.57"/><path class="cls-4" d="M174.27,45.34c-2.65-3.16-6.5-5-11.47-5-10.1,0-17.54,8.22-17.54,19.51s7.44,19.52,17.11,19.52a14.49,14.49,0,0,0,12.5-6.51L186,81.21C181,88.4,172.39,91.74,164.09,91.74c-18.92,0-32.7-12.42-32.7-31.85s13.78-31.83,32.7-31.83c6.76,0,15.32,2.31,20.45,8.9Z" transform="translate(0.16 0.63)"/><path class="cls-4" d="M209.16,47.57c12.84,0,23.11,8.56,23.11,21.83S222,91.22,209.16,91.22s-23.11-8.56-23.11-21.82S196.32,47.57,209.16,47.57Zm0,32.35c6.42,0,10.27-4.28,10.27-10.52s-3.85-10.53-10.27-10.53-10.27,4.28-10.27,10.53S202.74,79.92,209.16,79.92Z" transform="translate(0.16 0.63)"/><path class="cls-4" d="M237,48.6h12.84v6.67H250c2.73-5.05,6.33-7.7,12-7.7a17,17,0,0,1,4.28.43V59.72a20,20,0,0,0-5.48-.85c-9.76,0-10.95,5.65-10.95,13.95V90.19H237Z" transform="translate(0.16 0.63)"/><path class="cls-4" d="M270,48.6h12.32v5.65h.17c1.71-3.26,5.91-6.68,12.16-6.68,13,0,15.4,8.56,15.4,19.69V90.19H297.17V69.82c0-4.79-.08-10.95-6.67-10.95s-7.7,5.22-7.7,10.61V90.19H270Z" transform="translate(0.16 0.63)"/><path class="cls-4" d="M355,83a22.58,22.58,0,0,1-17.55,8.22c-12.84,0-23.11-8.56-23.11-21.82s10.27-21.83,23.11-21.83c12,0,19.51,8.56,19.51,21.83v4H327.22a9.59,9.59,0,0,0,9.67,8c4.2,0,7-2.14,9.16-5ZM344.17,64.69a7.71,7.71,0,0,0-7.88-7.88c-5.65,0-8.73,3.85-9.07,7.88Z" transform="translate(0.16 0.63)"/><path class="cls-4" d="M361.55,59.85V29.6h12.83V90.19H361.55Z" transform="translate(0.16 0.63)"/><path class="cls-4" d="M381.92,59.85V29.6h12.84V90.19H381.92Z" transform="translate(0.16 0.63)"/><polygon points="19.17 35.06 19.17 90.82 24.52 90.82 24.52 35.06 43.69 35.06 43.69 30.22 0 30.22 0 35.06 19.02 35.06 19.17 35.06"/><path d="M67,49.93c-6.36,0-11.49,3.56-13.52,7.87l0,.09h-.28V29.6H48.28V90.19h4.84V70.58c0-10.93,6.15-16.32,13.84-16.33C75.2,54.26,77,60.64,77,67.07V90.19h4.84V66.81C81.85,58.18,79.19,49.94,67,49.93Z" transform="translate(0.16 0.63)"/><path d="M109.05,86.9c-12.1,0-15.12-10.72-15.13-15v-.15h33.21V68.26c0-9.09-6.36-18.33-18.42-18.33-11.48,0-19.62,8.82-19.63,20.56C89.09,82.66,97,91.21,109,91.22c6.94,0,12.92-2.43,16.92-8.29l-3.53-3C119.71,84.21,114.26,86.9,109.05,86.9ZM93.92,67.24c0-2.13,3.2-13,14.53-13,7.69,0,13.84,5.88,13.84,13v.15H93.92Z" transform="translate(0.16 0.63)"/><polygon points="410.01 60.47 410.01 30.22 404.66 30.22 404.66 60.47 404.66 90.82 434.71 90.82 434.71 85.99 410.01 85.99 410.01 60.47"/><path d="M469.3,64.07c0-9.94-6.05-14.12-15.6-14.14-5.05,0-11.12,1.92-14.86,5.42l2.81,3.29a18,18,0,0,1,12.05-4.39c6.37,0,11.26,2.8,11.28,9.73v2.55h-6.14c-3.89,0-9.36.3-13.83,2.1s-7.93,5.05-7.94,11c0,8.28,7.08,11.56,13.81,11.57s10.84-2.36,13.73-7.37l0-.07h.41v.15a39.08,39.08,0,0,0,.49,6.27h4.5a123.1,123.1,0,0,1-.75-16.46ZM465,73.14c0,3.32-.71,6.76-2.82,9.37s-5.6,4.39-11.11,4.39h0c-4.32,0-9.13-2.51-9.13-7.51,0-6.93,8.71-9,17.27-9H465Z" transform="translate(0.16 0.63)"/><path d="M498.13,49.92c-5.87,0-12.58,2.48-15.7,7.89l-.05.07H482V29.6h-4.83V90.19H482V83.26h.41l.05.08c3.12,5.41,9.83,7.88,15.7,7.88,12.08,0,20.64-8.65,20.65-20.64S510.21,49.93,498.13,49.92Zm0,37a16.33,16.33,0,1,1,0-32.65c9.76,0,15.8,7.36,15.81,16.33S507.89,86.89,498.13,86.9Z" transform="translate(0.16 0.63)"/><path d="M614.63,70.58c0,12,8.57,20.64,20.65,20.64s20.64-8.65,20.65-20.64-8.57-20.65-20.65-20.65S614.64,58.58,614.63,70.58Zm20.65-16.33c9.75,0,15.8,7.36,15.81,16.33S645,86.88,635.28,86.9s-15.8-7.36-15.82-16.32S625.52,54.26,635.28,54.25Z" transform="translate(0.16 0.63)"/><path d="M664.64,90.19h4.83V56.93h9.25V52.61h-9.25V43c0-7.12,2.28-10.67,7.09-10.68a10.65,10.65,0,0,1,4.52.79l.95-4.14a14.35,14.35,0,0,0-5.73-1c-5,0-11.65,3-11.66,13.12V52.61h-8.22v4.32h8.22Z" transform="translate(0.16 0.63)"/><path d="M693.9,60.05c0,18.41,12.76,31.68,31.17,31.69s31.17-13.28,31.18-31.69-12.77-31.69-31.18-31.69S693.9,41.63,693.9,60.05Zm31.17-26.86c8,0,14.42,2.93,18.89,7.75s6.94,11.54,6.94,19.11-2.47,14.28-6.94,19.1S733,86.9,725.08,86.9h0c-8,0-14.42-2.92-18.88-7.75s-6.94-11.54-6.94-19.1,2.47-14.28,6.94-19.11S717.12,33.19,725.07,33.19Z" transform="translate(0.16 0.63)"/><path d="M768.11,57.81l-.2.34-.08-.38c-.18-.8-.26-3.94-.34-6.82h-4.84c0,2.18.42,8.13.42,11V90.19h4.84V68.78c0-7.75,4.09-14,13.07-14a6.34,6.34,0,0,1,1.84.3l.57-4.74a11.56,11.56,0,0,0-2.84-.39C774.71,49.93,770.66,53.22,768.11,57.81Z" transform="translate(0.16 0.63)"/><path d="M806.83,49.93c-6.36,0-11.36,3.56-13.38,7.87l0,.08h-.48l0-.11c-.18-.8-.26-3.94-.35-6.82h-4.83c0,2.18.43,8.13.43,11V90.19H793V70.58c0-10.93,6.15-16.32,13.84-16.33,8.24,0,10.07,6.39,10.08,12.82V90.19h4.84V66.81C821.73,58.18,819.07,49.94,806.83,49.93Z" transform="translate(0.16 0.63)"/><path d="M832.44,35a3.7,3.7,0,1,0,3.7-3.7A3.68,3.68,0,0,0,832.44,35Z" transform="translate(0.16 0.63)"/><polygon points="833.89 71.32 833.89 90.82 838.72 90.82 838.72 71.32 838.72 51.58 833.89 51.58 833.89 71.32"/><path d="M864.91,86.9c-3.49,0-5.63-2.14-5.63-5.71V55.28h11.29V51H859.28V39.57h-4.84V51h-8.56v4.33h8.56V81.19c0,5.6,2.75,10,10,10A22.32,22.32,0,0,0,871,89.9l-.4-4.3A15.09,15.09,0,0,1,864.91,86.9Z" transform="translate(0.16 0.63)"/><path d="M896.84,49.93a14.63,14.63,0,0,0-13.39,7.87l0,.09H883V29.6h-4.83V90.2H883V70.58c0-10.93,6.15-16.32,13.85-16.33,8.24,0,10.06,6.39,10.07,12.82V90.2h4.84V66.81C911.73,58.18,909.07,49.94,896.84,49.93Z" transform="translate(0.16 0.63)"/><path d="M917,70.58c0,12,8.58,20.64,20.65,20.64s20.65-8.65,20.65-20.64-8.57-20.65-20.65-20.65S917.05,58.58,917,70.58Zm20.65-16.33c9.76,0,15.8,7.36,15.82,16.33s-6.06,16.3-15.82,16.32-15.79-7.36-15.81-16.32S927.94,54.27,937.69,54.25Z" transform="translate(0.16 0.63)"/><polygon points="964.75 60.47 964.75 90.82 969.59 90.82 969.59 60.47 969.59 30.22 964.75 30.22 964.75 60.47"/><path d="M975.67,70.58c0,12,8.57,20.64,20.65,20.64S1017,82.57,1017,70.58s-8.57-20.65-20.65-20.65S975.68,58.58,975.67,70.58Zm20.65-16.33c9.75,0,15.8,7.36,15.81,16.33s-6.06,16.3-15.81,16.32-15.8-7.36-15.81-16.32S986.57,54.26,996.32,54.25Z" transform="translate(0.16 0.63)"/><path d="M1056.29,57.56c-3-4.66-8.13-7.63-14.85-7.63-11.56,0-21,9.09-21,20.13s9.43,20.11,21,20.14c6.72,0,11.88-3,14.85-7.64l0-.07h.4v5.63c0,4.44-.28,18.28-16.07,18.3a22.6,22.6,0,0,1-16.51-6.46l-2.89,2.64c4,4.79,11.53,8.14,19.4,8.14s20.89-3.36,20.9-23V51h-4.83v6.68h-.41Zm.62,12.5a15.81,15.81,0,1,1-15.81-15.81A15.81,15.81,0,0,1,1056.91,70.06Z" transform="translate(0.16 0.63)"/><path d="M1099,51l-12.85,33.56L1071,51h-5.41l18,39.57L1080,99.73c-1.2,3.07-3.44,6.81-7.33,6.81a13.67,13.67,0,0,1-5.58-1l-2.34,3.39a19.5,19.5,0,0,0,8,1.83c5.58,0,9-3.19,11.15-8.21L1104.16,51Z" transform="translate(0.16 0.63)"/></svg>